<svg width="28" height="28" viewBox="0 0 28 28" fill="none" xmlns="http://www.w3.org/2000/svg">
<g clip-path="url(#clip0_44_639)">
<path d="M13.68 27.52C21.1027 27.52 27.12 21.5027 27.12 14.08C27.12 6.6573 21.1027 0.640015 13.68 0.640015C6.25729 0.640015 0.240002 6.6573 0.240002 14.08C0.240002 21.5027 6.25729 27.52 13.68 27.52Z" fill="#F0F0F0"/>
<path d="M13.6802 0.639648C7.90148 0.639648 2.97515 4.28693 1.07617 9.40489H26.2843C24.3853 4.28693 19.4589 0.639648 13.6802 0.639648Z" fill="#D80027"/>
<path d="M13.6802 27.5204C19.4589 27.5204 24.3853 23.8731 26.2842 18.7551H1.07617C2.97515 23.8731 7.90148 27.5204 13.6802 27.5204Z" fill="black"/>
<path d="M18.3547 12.6191H14.8486C14.8486 11.9737 14.3254 11.4504 13.6799 11.4504C13.0345 11.4504 12.5112 11.9737 12.5112 12.6191H9.00512C9.00512 13.2646 9.56734 13.7878 10.2128 13.7878H10.1738C10.1738 14.4333 10.697 14.9565 11.3425 14.9565C11.3425 15.602 11.8657 16.1252 12.5112 16.1252H14.8486C15.4941 16.1252 16.0173 15.602 16.0173 14.9565C16.6628 14.9565 17.186 14.4333 17.186 13.7878H17.1471C17.7926 13.7878 18.3547 13.2646 18.3547 12.6191Z" fill="#FF9811"/>
</g>
<defs>
<clipPath id="clip0_44_639">
<rect width="26.88" height="26.88" fill="white" transform="translate(0.240002 0.640015)"/>
</clipPath>
</defs>
</svg>
