<svg width="27" height="27" viewBox="0 0 27 27" fill="none" xmlns="http://www.w3.org/2000/svg">
<path d="M26.4629 10.6796H25.3931V10.6245H13.4406V15.9367H20.9461C19.8511 19.0291 16.9088 21.2489 13.4406 21.2489C9.04006 21.2489 5.47223 17.6811 5.47223 13.2806C5.47223 8.88007 9.04006 5.31224 13.4406 5.31224C15.4719 5.31224 17.3198 6.07853 18.7269 7.33022L22.4833 3.57381C20.1114 1.36325 16.9387 0 13.4406 0C6.10638 0 0.159996 5.94638 0.159996 13.2806C0.159996 20.6148 6.10638 26.5612 13.4406 26.5612C20.7748 26.5612 26.7212 20.6148 26.7212 13.2806C26.7212 12.3901 26.6295 11.5209 26.4629 10.6796Z" fill="#282A28"/>
<path d="M1.69125 7.09914L6.05458 10.2991C7.23523 7.37604 10.0945 5.31224 13.4406 5.31224C15.4719 5.31224 17.3198 6.07853 18.7269 7.33022L22.4833 3.57381C20.1114 1.36325 16.9387 0 13.4406 0C8.33951 0 3.91575 2.8799 1.69125 7.09914Z" fill="#282A28"/>
<path d="M13.4406 26.5613C16.871 26.5613 19.9879 25.2485 22.3445 23.1136L18.2342 19.6354C16.9008 20.6454 15.2434 21.249 13.4406 21.249C9.98629 21.249 7.05328 19.0464 5.94833 15.9727L1.61753 19.3094C3.81547 23.6103 8.27908 26.5613 13.4406 26.5613Z" fill="#282A28"/>
<path d="M26.4629 10.6795H25.3931V10.6244H13.4406V15.9366H20.9461C20.4202 17.4221 19.4647 18.703 18.2322 19.6359C18.2329 19.6353 18.2336 19.6353 18.2342 19.6346L22.3446 23.1128C22.0537 23.3771 26.7212 19.9208 26.7212 13.2805C26.7212 12.39 26.6295 11.5208 26.4629 10.6795Z" fill="#282A28"/>
</svg>
