<svg width="28" height="28" viewBox="0 0 28 28" fill="none" xmlns="http://www.w3.org/2000/svg">
<g clip-path="url(#clip0_44_637)">
<path d="M14.04 27.52C21.4627 27.52 27.48 21.5027 27.48 14.08C27.48 6.6573 21.4627 0.640015 14.04 0.640015C6.61733 0.640015 0.600037 6.6573 0.600037 14.08C0.600037 21.5027 6.61733 27.52 14.04 27.52Z" fill="#F0F0F0"/>
<path d="M3.67212 5.52662H24.4079C23.6421 4.59921 22.7538 3.77679 21.7684 3.08301H6.31166C5.32629 3.77669 4.43804 4.59915 3.67212 5.52662Z" fill="#F0F0F0"/>
<path d="M0.600037 14.0807C0.600037 14.4926 0.619619 14.8999 0.655897 15.3025H27.4242C27.4604 14.8999 27.48 14.4926 27.48 14.0807C27.48 13.6687 27.4604 13.2614 27.4242 12.8589H0.655897C0.619619 13.2614 0.600037 13.6687 0.600037 14.0807Z" fill="#F0F0F0"/>
<path d="M2.06597 20.1892H26.0148C26.4105 19.415 26.7333 18.5975 26.9743 17.7456H1.10648C1.3474 18.5975 1.67028 19.415 2.06597 20.1892Z" fill="#F0F0F0"/>
<path d="M6.31166 25.0763H21.7683C22.7537 24.3825 23.642 23.5601 24.4079 22.6327H3.67212C4.43804 23.56 5.32629 24.3825 6.31166 25.0763Z" fill="#F0F0F0"/>
<path d="M1.10637 10.4152H26.9743C26.7333 9.5632 26.4105 8.74567 26.0147 7.97156H2.06591C1.67022 8.74567 1.34734 9.5632 1.10637 10.4152Z" fill="#F0F0F0"/>
<path d="M7.02714 3.08375H21.7677C19.5816 1.54455 16.9161 0.640137 14.0393 0.640137C12.2863 0.640137 9.21324 1.54455 7.02714 3.08375Z" fill="#D80027"/>
<path d="M13.4557 7.97071H26.0144C25.5674 7.09643 25.0276 6.27748 24.4079 5.5271H13.4557V7.97071Z" fill="#D80027"/>
<path d="M13.4557 12.8575H27.4241C27.3485 12.0185 27.1966 11.2014 26.9739 10.4139H13.4557V12.8575Z" fill="#D80027"/>
<path d="M1.10567 17.7466H26.9735C27.1962 16.9592 27.3481 16.142 27.4237 15.303H0.655426C0.731026 16.142 0.882961 16.9591 1.10567 17.7466Z" fill="#D80027"/>
<path d="M3.67179 22.6333H24.4076C25.0274 21.8828 25.5672 21.0639 26.0141 20.1897H2.06529C2.51222 21.064 3.05203 21.8829 3.67179 22.6333Z" fill="#D80027"/>
<path d="M14.0392 27.5205C16.916 27.5205 19.5815 26.6161 21.7676 25.0769H6.31084C8.49694 26.6161 11.1624 27.5205 14.0392 27.5205Z" fill="#D80027"/>
<path d="M1.10612 10.4141C0.883419 11.2016 0.731537 12.0186 0.655937 12.8577H14.0401V0.639526C7.88812 0.639526 2.7017 4.77295 1.10612 10.4141Z" fill="#0052B4"/>
<path d="M8.6009 4.14624L9.47109 6.82453H12.2875L10.0091 8.47996L10.8792 11.1584L8.6009 9.50308L6.32246 11.1584L7.1928 8.47996L4.91441 6.82453H7.73067L8.6009 4.14624Z" fill="#F0F0F0"/>
</g>
<defs>
<clipPath id="clip0_44_637">
<rect width="26.88" height="26.88" fill="white" transform="translate(0.600037 0.640015)"/>
</clipPath>
</defs>
</svg>
