<svg width="39" height="37" viewBox="0 0 39 37" fill="none" xmlns="http://www.w3.org/2000/svg">
<path d="M33.6579 6.92555V29.911H5.51357V6.92555H33.6579ZM33.6579 4.62701H5.51357C4.89154 4.62701 4.29499 4.86918 3.85515 5.30024C3.41531 5.7313 3.16821 6.31594 3.16821 6.92555V29.911C3.16821 30.5206 3.41531 31.1052 3.85515 31.5363C4.29499 31.9673 4.89154 32.2095 5.51357 32.2095H33.6579C34.2799 32.2095 34.8764 31.9673 35.3163 31.5363C35.7561 31.1052 36.0032 30.5206 36.0032 29.911V6.92555C36.0032 6.31594 35.7561 5.7313 35.3163 5.30024C34.8764 4.86918 34.2799 4.62701 33.6579 4.62701Z" fill="white"/>
<path d="M7.85895 11.5227H16.0677V13.8212H7.85895V11.5227Z" fill="white"/>
<path d="M7.85895 16.1198H12.5497V18.4184H7.85895V16.1198Z" fill="white"/>
<path d="M27.7945 20.7169H20.7584C19.8254 20.7169 18.9305 21.0802 18.2708 21.7268C17.611 22.3733 17.2404 23.2503 17.2404 24.1647V26.4633H19.5857V24.1647C19.5857 23.8599 19.7093 23.5676 19.9292 23.3521C20.1491 23.1365 20.4474 23.0155 20.7584 23.0155H27.7945C28.1055 23.0155 28.4038 23.1365 28.6237 23.3521C28.8436 23.5676 28.9671 23.8599 28.9671 24.1647V26.4633H31.3125V24.1647C31.3125 23.2503 30.9419 22.3733 30.2821 21.7268C29.6223 21.0802 28.7275 20.7169 27.7945 20.7169Z" fill="white"/>
<path d="M24.2765 19.5676C25.2042 19.5676 26.1111 19.298 26.8825 18.7929C27.6539 18.2878 28.2551 17.5698 28.6101 16.7298C28.9652 15.8898 29.058 14.9655 28.8771 14.0737C28.6961 13.182 28.2493 12.3628 27.5933 11.7199C26.9373 11.077 26.1015 10.6392 25.1916 10.4618C24.2817 10.2844 23.3385 10.3755 22.4814 10.7234C21.6243 11.0714 20.8917 11.6606 20.3763 12.4166C19.8609 13.1725 19.5858 14.0613 19.5858 14.9706C19.5858 16.1898 20.08 17.3591 20.9596 18.2212C21.8393 19.0833 23.0324 19.5676 24.2765 19.5676ZM24.2765 12.672C24.7403 12.672 25.1938 12.8068 25.5795 13.0594C25.9652 13.312 26.2658 13.6709 26.4433 14.0909C26.6208 14.5109 26.6673 14.9731 26.5768 15.419C26.4863 15.8649 26.2629 16.2744 25.9349 16.5959C25.6069 16.9173 25.189 17.1362 24.734 17.2249C24.2791 17.3136 23.8075 17.2681 23.3789 17.0941C22.9504 16.9202 22.5841 16.6256 22.3264 16.2476C22.0687 15.8696 21.9311 15.4252 21.9311 14.9706C21.9311 14.3609 22.1782 13.7763 22.6181 13.3452C23.0579 12.9142 23.6544 12.672 24.2765 12.672Z" fill="white"/>
</svg>
