<svg width="31" height="26" viewBox="0 0 31 26" fill="none" xmlns="http://www.w3.org/2000/svg">
<path d="M26.35 0.223877H4.65C3.41674 0.223877 2.234 0.717737 1.36195 1.59681C0.48991 2.47589 0 3.66817 0 4.91138V20.5364C0 21.7796 0.48991 22.9719 1.36195 23.8509C2.234 24.73 3.41674 25.2239 4.65 25.2239H26.35C27.5833 25.2239 28.766 24.73 29.638 23.8509C30.5101 22.9719 31 21.7796 31 20.5364V4.91138C31 3.66817 30.5101 2.47589 29.638 1.59681C28.766 0.717737 27.5833 0.223877 26.35 0.223877ZM26.35 3.34888L16.275 10.3333C16.0394 10.4704 15.7721 10.5426 15.5 10.5426C15.2279 10.5426 14.9606 10.4704 14.725 10.3333L4.65 3.34888H26.35Z" fill="white"/>
</svg>
